HIERARCHY
ROOT Hips
{
	OFFSET -0.179506 -22.333345 2.821913
	CHANNELS 6 Xposition Yposition Zposition Zrotation Yrotation Xrotation 
	JOINT LeftUpLeg
	{
		OFFSET 6.951974 -9.140623 -0.681533
		CHANNELS 3 Zrotation Yrotation Xrotation
		JOINT LeftLeg
		{
			OFFSET 3.427654 -37.519855 -0.449580
			CHANNELS 3 Zrotation Yrotation Xrotation
			JOINT LeftFoot
			{
				OFFSET -1.359570 -39.796059 -4.369333
				CHANNELS 3 Zrotation Yrotation Xrotation
				JOINT LeftToe
				{
					OFFSET 2.635814 -5.579078 11.928840
					CHANNELS 3 Zrotation Yrotation Xrotation
					End Site
					{
						OFFSET 0.000000 0.000000 0.000000
					}
				}
			}
		}
	}
	JOINT RightUpLeg
	{
		OFFSET -6.767048 -9.052170 -0.431982
		CHANNELS 3 Zrotation Yrotation Xrotation
		JOINT RightLeg
		{
			OFFSET -3.829005 -38.256897 -0.885003
			CHANNELS 3 Zrotation Yrotation Xrotation
			JOINT RightFoot
			{
				OFFSET 1.577377 -39.841461 -4.231180
				CHANNELS 3 Zrotation Yrotation Xrotation
				JOINT RightToe
				{
					OFFSET -2.537174 -4.814398 12.334795
					CHANNELS 3 Zrotation Yrotation Xrotation
					End Site
					{
						OFFSET 0.000000 0.000000 0.000000
					}
				}
			}
		}
	}
	JOINT Spine
	{
		OFFSET -0.253288 10.896323 -2.669631
		CHANNELS 3 Zrotation Yrotation Xrotation
		JOINT Spine1
		{
			OFFSET 0.548704 13.518043 0.109247
			CHANNELS 3 Zrotation Yrotation Xrotation
			JOINT Spine2
			{
				OFFSET 0.145701 5.292222 2.542457
				CHANNELS 3 Zrotation Yrotation Xrotation
				JOINT Neck
				{
					OFFSET -0.277840 21.387037 -4.285703
					CHANNELS 3 Zrotation Yrotation Xrotation
					JOINT Head
					{
						OFFSET 0.515184 6.496960 5.134897
						CHANNELS 3 Zrotation Yrotation Xrotation
						End Site
						{
							OFFSET 0.000000 0.000000 0.000000
						}
					}
				}
				JOINT LeftShoulder
				{
					OFFSET 7.884473 12.174932 -3.408961
					CHANNELS 3 Zrotation Yrotation Xrotation
					JOINT LeftArm
					{
						OFFSET 9.097692 3.046888 -0.886815
						CHANNELS 3 Zrotation Yrotation Xrotation
						JOINT LeftForeArm
						{
							OFFSET 25.961220 -1.277207 -2.745643
							CHANNELS 3 Zrotation Yrotation Xrotation
							JOINT LeftHand
							{
								OFFSET 24.923361 0.898606 -0.117091
								CHANNELS 3 Zrotation Yrotation Xrotation
								End Site
								{
									OFFSET 0.000000 0.000000 0.000000
								}
							}
						}
					}
				}
				JOINT RightShoulder
				{
					OFFSET -8.175920 11.883285 -3.861528
					CHANNELS 3 Zrotation Yrotation Xrotation
					JOINT RightArm
					{
						OFFSET -9.601238 3.255117 -0.914307
						CHANNELS 3 Zrotation Yrotation Xrotation
						JOINT RightForeArm
						{
							OFFSET -25.374195 -1.332924 -2.140099
							CHANNELS 3 Zrotation Yrotation Xrotation
							JOINT RightHand
							{
								OFFSET -25.529810 0.777228 -0.555919
								CHANNELS 3 Zrotation Yrotation Xrotation
								End Site
								{
									OFFSET 0.000000 0.000000 0.000000
								}
							}
						}
					}
				}
			}
		}
	}
}
MOTION
Frames: 7
Frame Time: 0.033333
-4.589793 -5.473085 99.950790 173.285630 -0.315114 85.388561 3.811845 2.656132 9.510524 -3.330722 -3.276731 -5.530741 1.669486 8.668249 -4.858975 nan nan nan -3.634187 -2.524637 6.356003 3.504306 -0.328865 -4.176121 5.914006 -3.035144 0.297073 nan nan nan -0.460282 2.437833 5.449295 1.024835 -1.388886 5.017055 1.291386 0.190856 0.222307 -1.732487 2.140101 0.865163 2.329236 -1.720116 -2.082820 -26.371266 0.532651 4.491736 -57.732194 -6.028478 9.915717 8.144536 -22.455158 1.621132 -5.854068 -11.916071 -4.332424 26.401350 5.202216 5.855879 56.748928 5.505635 10.670824 -12.790671 16.636383 -9.858638 6.236669 8.021976 -10.318977 
-4.599652 -5.460269 99.946205 173.275642 -0.319767 85.461422 3.801330 2.662554 9.466899 -3.308617 -3.304778 -5.586286 1.603272 8.674520 -4.827927 nan nan nan -3.660556 -2.508845 6.288719 3.546451 -0.297825 -4.168600 5.967592 -3.078065 0.317346 nan nan nan -0.457620 2.422558 5.315496 0.994771 -1.357306 5.021718 1.295577 0.168687 0.241284 -1.695015 1.996909 0.745436 2.284759 -1.835939 -1.928978 -26.352804 0.576241 4.510547 -57.726065 -6.012292 9.954334 8.064970 -22.424484 1.784545 -5.827565 -11.910838 -4.298583 26.428994 5.146465 5.830786 56.698706 5.525944 10.707969 -12.679022 16.597127 -9.762845 6.195733 7.965692 -10.289614 
-4.607949 -5.492291 99.913559 173.446528 -0.290712 85.652065 3.828330 2.701152 9.166850 -3.274292 -3.428755 -5.512748 1.565316 8.640512 -4.844212 nan nan nan -3.629263 -2.508794 6.113438 3.565110 -0.316576 -4.213946 6.026763 -3.227267 0.309891 nan nan nan -0.450532 2.322517 5.122541 0.975961 -1.390996 4.974038 1.319166 0.121345 0.300160 -1.665902 1.902904 0.626379 2.235048 -1.851772 -1.828969 -26.239842 0.558215 4.535718 -57.811883 -6.016441 10.052474 7.980666 -22.399290 1.990442 -5.815118 -11.868099 -4.306876 26.364024 5.101005 5.772268 56.723033 5.541794 10.761801 -12.574602 16.617573 -9.652437 6.198827 7.893756 -10.366233 
-4.607945 -5.528845 99.894791 173.623808 -0.253570 85.778878 3.865934 2.746564 8.893435 -3.248976 -3.553524 -5.355964 1.563619 8.596699 -4.911220 nan nan nan -3.562818 -2.520669 5.972876 3.535081 -0.352037 -4.214818 6.007695 -3.342543 0.264935 nan nan nan -0.468583 2.230875 5.031349 1.007794 -1.462685 4.943960 1.327606 0.104929 0.303498 -1.657048 1.904778 0.627800 2.226737 -1.810145 -1.792551 -26.168864 0.537171 4.509595 -57.871567 -6.021189 10.152967 7.971981 -22.311730 2.012397 -5.811659 -11.803764 -4.268749 26.346679 5.088998 5.711175 56.748899 5.533805 10.800738 -12.541367 16.604524 -9.601998 6.226638 7.852643 -10.339500 
-4.727824 -5.181259 99.818665 174.228510 -0.408127 85.163404 3.671263 2.424348 9.936928 -3.228382 -3.773714 -5.818208 1.887123 8.400896 -5.074979 nan nan nan -4.121453 -2.853159 7.485417 3.858881 -0.488782 -5.192504 6.210289 -3.157202 0.464599 nan nan nan -0.439698 2.000641 5.245715 0.792279 -1.593264 4.802250 1.442722 -0.105626 0.939164 -1.696865 2.008963 0.522627 2.241504 -1.829852 -1.544768 -25.693921 0.811812 4.808059 -58.427846 -6.480326 9.297854 10.229177 -25.614295 1.559215 -4.468909 -12.195249 -5.563691 26.044883 4.968740 6.054393 57.145519 5.827889 10.532575 -12.814563 16.989678 -9.373655 5.851116 7.623291 -11.000348 
-4.684407 -5.193887 99.779861 174.344555 -0.557011 85.042788 3.556654 1.936977 10.063077 -3.386665 -3.629122 -5.840158 2.582562 8.537667 -5.184253 nan nan nan -4.327273 -2.536642 7.827977 3.863040 -0.491824 -5.533916 6.626191 -3.124215 0.479275 nan nan nan -0.859023 1.960700 5.615305 0.777580 -1.621159 4.306468 1.714066 -0.132582 1.411980 -1.705211 2.065795 0.109542 2.764313 -2.134903 -1.299540 -25.439888 1.015812 4.808417 -58.722756 -6.828000 8.917006 10.260710 -25.005094 1.617400 -5.292650 -14.810276 -6.654979 25.848218 5.007747 5.939904 57.492538 5.954619 10.590245 -12.965993 16.893310 -9.356769 5.965120 8.513783 -11.776978 
-4.660084 -5.195618 99.762177 174.468425 -0.551927 85.015332 3.592176 1.795858 10.046002 -3.419666 -3.729138 -5.782662 2.879932 8.610803 -5.260424 nan nan nan -4.293465 -2.472570 7.959817 3.865661 -0.468367 -5.672941 6.722322 -3.290406 0.430165 nan nan nan -0.978471 1.878101 5.783704 0.785777 -1.679225 4.002631 1.773978 -0.082997 1.643687 -1.802838 2.192614 -0.015498 3.053921 -2.318066 -1.141286 -25.509836 1.016103 4.695714 -58.903342 -7.447466 8.799069 9.939075 -24.202762 2.097039 -5.982991 -15.736117 -7.037149 25.745048 4.985015 5.811034 57.751575 5.906481 10.709432 -13.109861 16.896542 -9.329305 6.135679 8.840385 -12.251097 
